<mxfile host="app.diagrams.net" agent="Mozilla/5.0 (Windows NT 6.1; Win64; x64; rv:108.0) Gecko/20100101 Firefox/108.0" version="27.1.6">
  <diagram name="PÃ¡gina-1" id="-1E9cX9E3TNPBG-o5X45">
    <mxGraphModel dx="1491" dy="783" grid="1" gridSize="10" guides="1" tooltips="1" connect="1" arrows="1" fold="1" page="1" pageScale="1" pageWidth="827" pageHeight="1169" math="0" shadow="0">
      <root>
        <mxCell id="0" />
        <mxCell id="1" parent="0" />
        <mxCell id="pPEV96RN9oItgdAnliej-1" value="Usuario" style="swimlane;childLayout=stackLayout;horizontal=1;startSize=50;horizontalStack=0;rounded=1;fontSize=14;fontStyle=0;strokeWidth=2;resizeParent=0;resizeLast=1;shadow=0;dashed=0;align=center;arcSize=4;whiteSpace=wrap;html=1;" vertex="1" parent="1">
          <mxGeometry x="79" y="420" width="231" height="280" as="geometry" />
        </mxCell>
        <mxCell id="pPEV96RN9oItgdAnliej-2" value="~ id : int&lt;br&gt;&lt;div&gt;# usuario : String&lt;/div&gt;&lt;div&gt;# senha : String&lt;/div&gt;&lt;div&gt;- nome : String&lt;/div&gt;&lt;div&gt;- celular : String&lt;/div&gt;&lt;div&gt;- email : String&lt;/div&gt;&lt;div&gt;- cnh : String&lt;/div&gt;&lt;div&gt;- data_nascimento : Date&lt;br&gt;&lt;/div&gt;&lt;div&gt;+ adicionar_noticia()&lt;br&gt;&lt;/div&gt;&lt;div&gt;&lt;br&gt;&lt;/div&gt;" style="align=left;strokeColor=none;fillColor=none;spacingLeft=4;spacingRight=4;fontSize=12;verticalAlign=top;resizable=0;rotatable=0;part=1;html=1;whiteSpace=wrap;" vertex="1" parent="pPEV96RN9oItgdAnliej-1">
          <mxGeometry y="50" width="231" height="230" as="geometry" />
        </mxCell>
        <mxCell id="pPEV96RN9oItgdAnliej-3" value="Adiministrador" style="swimlane;childLayout=stackLayout;horizontal=1;startSize=50;horizontalStack=0;rounded=1;fontSize=14;fontStyle=0;strokeWidth=2;resizeParent=0;resizeLast=1;shadow=0;dashed=0;align=center;arcSize=4;whiteSpace=wrap;html=1;" vertex="1" parent="1">
          <mxGeometry x="79" y="840" width="231" height="270" as="geometry" />
        </mxCell>
        <mxCell id="pPEV96RN9oItgdAnliej-4" value="+ adicionar_usuario()&lt;br&gt;+ adicionar_exportacao():booean" style="align=left;strokeColor=none;fillColor=none;spacingLeft=4;spacingRight=4;fontSize=12;verticalAlign=top;resizable=0;rotatable=0;part=1;html=1;whiteSpace=wrap;" vertex="1" parent="pPEV96RN9oItgdAnliej-3">
          <mxGeometry y="50" width="231" height="220" as="geometry" />
        </mxCell>
        <mxCell id="pPEV96RN9oItgdAnliej-6" value="" style="endArrow=block;html=1;endFill=0;edgeStyle=elbowEdgeStyle;elbow=vertical;rounded=0;entryX=0.425;entryY=1.057;entryDx=0;entryDy=0;entryPerimeter=0;" edge="1" parent="1" source="pPEV96RN9oItgdAnliej-3" target="pPEV96RN9oItgdAnliej-2">
          <mxGeometry width="100" height="75" relative="1" as="geometry">
            <mxPoint x="119" y="695" as="sourcePoint" />
            <mxPoint x="219" y="620" as="targetPoint" />
          </mxGeometry>
        </mxCell>
        <mxCell id="pPEV96RN9oItgdAnliej-7" value="Exportacao" style="swimlane;childLayout=stackLayout;horizontal=1;startSize=50;horizontalStack=0;rounded=1;fontSize=14;fontStyle=0;strokeWidth=2;resizeParent=0;resizeLast=1;shadow=0;dashed=0;align=center;arcSize=4;whiteSpace=wrap;html=1;" vertex="1" parent="1">
          <mxGeometry x="519" y="450" width="230" height="270" as="geometry" />
        </mxCell>
        <mxCell id="pPEV96RN9oItgdAnliej-8" value="~ id : int&lt;br&gt;- empresa_importadora : String&lt;br&gt;&lt;div&gt;- data_de_validade : Date&lt;/div&gt;&lt;div&gt;- data_inicio_da_importacao : Date&lt;/div&gt;&lt;div&gt;- data_prevista_da_importacao : Date&lt;/div&gt;&lt;div&gt;- peso : double&lt;/div&gt;&lt;div&gt;- tipo_de_carne : String&lt;/div&gt;&lt;div&gt;- quantidade_de_pecas : int&lt;/div&gt;&lt;div&gt;- temperatura : double&lt;/div&gt;&lt;div&gt;- status_concluido : boolean&lt;/div&gt;&lt;div&gt;- camera : [ ]&lt;/div&gt;&lt;div&gt;- usuario : Usuario&lt;br&gt;&lt;/div&gt;&lt;div&gt;&lt;br&gt;&lt;/div&gt;&lt;div&gt;&lt;br&gt;&lt;/div&gt;" style="align=left;strokeColor=none;fillColor=none;spacingLeft=4;spacingRight=4;fontSize=12;verticalAlign=top;resizable=0;rotatable=0;part=1;html=1;whiteSpace=wrap;" vertex="1" parent="pPEV96RN9oItgdAnliej-7">
          <mxGeometry y="50" width="230" height="220" as="geometry" />
        </mxCell>
        <mxCell id="pPEV96RN9oItgdAnliej-9" value="" style="edgeStyle=entityRelationEdgeStyle;fontSize=12;html=1;endArrow=ERmandOne;startArrow=ERmandOne;rounded=0;exitX=1;exitY=0.5;exitDx=0;exitDy=0;entryX=-0.013;entryY=0.341;entryDx=0;entryDy=0;entryPerimeter=0;" edge="1" parent="1" source="pPEV96RN9oItgdAnliej-1" target="pPEV96RN9oItgdAnliej-8">
          <mxGeometry width="100" height="100" relative="1" as="geometry">
            <mxPoint x="369" y="780" as="sourcePoint" />
            <mxPoint x="469" y="680" as="targetPoint" />
          </mxGeometry>
        </mxCell>
        <mxCell id="pPEV96RN9oItgdAnliej-13" value="Noticias" style="swimlane;childLayout=stackLayout;horizontal=1;startSize=50;horizontalStack=0;rounded=1;fontSize=14;fontStyle=0;strokeWidth=2;resizeParent=0;resizeLast=1;shadow=0;dashed=0;align=center;arcSize=4;whiteSpace=wrap;html=1;" vertex="1" parent="1">
          <mxGeometry x="79" y="60" width="231" height="260" as="geometry" />
        </mxCell>
        <mxCell id="pPEV96RN9oItgdAnliej-14" value="~ data_da_noticia : Date&lt;br&gt;+ titulo : String&lt;br&gt;&lt;div&gt;+ post : String&lt;/div&gt;&lt;div&gt;+ editar_noticia():boolean&lt;br&gt;&lt;/div&gt;" style="align=left;strokeColor=none;fillColor=none;spacingLeft=4;spacingRight=4;fontSize=12;verticalAlign=top;resizable=0;rotatable=0;part=1;html=1;whiteSpace=wrap;" vertex="1" parent="pPEV96RN9oItgdAnliej-13">
          <mxGeometry y="50" width="231" height="210" as="geometry" />
        </mxCell>
        <mxCell id="pPEV96RN9oItgdAnliej-17" value="" style="curved=1;endArrow=classic;html=1;rounded=0;fontFamily=Helvetica;fontSize=14;fontColor=default;fontStyle=0;horizontal=1;exitX=1;exitY=0.5;exitDx=0;exitDy=0;entryX=0.25;entryY=1;entryDx=0;entryDy=0;" edge="1" parent="1" source="pPEV96RN9oItgdAnliej-4" target="pPEV96RN9oItgdAnliej-8">
          <mxGeometry width="50" height="50" relative="1" as="geometry">
            <mxPoint x="460" y="930" as="sourcePoint" />
            <mxPoint x="510" y="880" as="targetPoint" />
            <Array as="points">
              <mxPoint x="590" y="980" />
              <mxPoint x="410" y="860" />
            </Array>
          </mxGeometry>
        </mxCell>
        <mxCell id="pPEV96RN9oItgdAnliej-18" value="" style="endArrow=classic;html=1;rounded=0;fontFamily=Helvetica;fontSize=14;fontColor=default;fontStyle=0;horizontal=1;exitX=0.5;exitY=0;exitDx=0;exitDy=0;entryX=0.5;entryY=1;entryDx=0;entryDy=0;" edge="1" parent="1" source="pPEV96RN9oItgdAnliej-1" target="pPEV96RN9oItgdAnliej-14">
          <mxGeometry width="50" height="50" relative="1" as="geometry">
            <mxPoint x="390" y="330" as="sourcePoint" />
            <mxPoint x="440" y="280" as="targetPoint" />
          </mxGeometry>
        </mxCell>
      </root>
    </mxGraphModel>
  </diagram>
</mxfile>
